<svg width="256" height="256" viewBox="0 0 256 256" fill="none" xmlns="http://www.w3.org/2000/svg">
  <defs>
    <linearGradient id="outerArmor" x1="30" y1="20" x2="216" y2="232" gradientUnits="userSpaceOnUse">
      <stop stop-color="#E0B46D"/>
      <stop offset="0.22" stop-color="#8A8F98"/>
      <stop offset="0.56" stop-color="#283242"/>
      <stop offset="1" stop-color="#0C121A"/>
    </linearGradient>
    <linearGradient id="innerArmor" x1="78" y1="54" x2="170" y2="188" gradientUnits="userSpaceOnUse">
      <stop stop-color="#1D2734"/>
      <stop offset="0.58" stop-color="#0E1621"/>
      <stop offset="1" stop-color="#0A1017"/>
    </linearGradient>
    <linearGradient id="coreGlow" x1="92" y1="82" x2="164" y2="166" gradientUnits="userSpaceOnUse">
      <stop stop-color="#79F1FF"/>
      <stop offset="0.5" stop-color="#5EA8FF"/>
      <stop offset="1" stop-color="#7C67FF"/>
    </linearGradient>
    <filter id="cyanGlow" x="64" y="52" width="128" height="146" filterUnits="userSpaceOnUse" color-interpolation-filters="sRGB">
      <feGaussianBlur stdDeviation="7" result="blur"/>
      <feMerge>
        <feMergeNode in="blur"/>
        <feMergeNode in="SourceGraphic"/>
      </feMerge>
    </filter>
  </defs>

  <path d="M128 16L194 40L220 117C225 145 212 181 180 206L128 240L76 206C44 181 31 145 36 117L62 40L128 16Z" fill="#070B11" stroke="#C79A52" stroke-width="6"/>
  <path d="M128 30L183 50L205 119C208 140 197 168 171 189L128 218L85 189C59 168 48 140 51 119L73 50L128 30Z" fill="url(#outerArmor)" stroke="#6F7884" stroke-width="4"/>

  <path d="M128 52L164 65L180 114C182 129 174 148 156 163L128 186L100 163C82 148 74 129 76 114L92 65L128 52Z" fill="url(#innerArmor)" stroke="#91E8FF" stroke-width="3" filter="url(#cyanGlow)"/>

  <path d="M128 73L148 81L158 113C159 121 155 132 145 140L128 154L111 140C101 132 97 121 98 113L108 81L128 73Z" fill="#0B121A"/>
  <path d="M127 84L138 88L145 112C146 117 143 123 137 127L127 136L117 127C111 123 108 117 109 112L116 88L127 84Z" fill="url(#coreGlow)"/>

  <path d="M94 77L74 100" stroke="#25313D" stroke-width="7" stroke-linecap="round"/>
  <path d="M163 92L182 113" stroke="#283341" stroke-width="7" stroke-linecap="round"/>
  <path d="M102 172L117 160" stroke="#A86149" stroke-width="5" stroke-linecap="round" opacity="0.85"/>
  <path d="M151 148L168 135" stroke="#A86149" stroke-width="5" stroke-linecap="round" opacity="0.85"/>

  <path d="M88 124H109" stroke="#79F1FF" stroke-width="3" stroke-linecap="round" opacity="0.85"/>
  <path d="M147 124H170" stroke="#79F1FF" stroke-width="3" stroke-linecap="round" opacity="0.85"/>
  <path d="M117 58L126 47" stroke="#F3D7AB" stroke-width="2" opacity="0.45"/>
  <path d="M141 60L151 49" stroke="#F3D7AB" stroke-width="2" opacity="0.4"/>

  <path d="M130 30L145 64L130 103L143 126L122 161" stroke="#D28A74" stroke-width="3.2" stroke-linecap="round" stroke-linejoin="round" opacity="0.75"/>
  <path d="M130 103L115 114" stroke="#D28A74" stroke-width="2.6" stroke-linecap="round" opacity="0.6"/>
  <path d="M130 104L144 116" stroke="#D28A74" stroke-width="2.3" stroke-linecap="round" opacity="0.52"/>

  <path d="M60 56L77 64" stroke="#C79A52" stroke-width="2.4" opacity="0.48"/>
  <path d="M178 64L196 55" stroke="#C79A52" stroke-width="2.4" opacity="0.48"/>
  <path d="M70 184L88 193" stroke="#6E7784" stroke-width="3" opacity="0.6"/>
  <path d="M167 192L186 182" stroke="#6E7784" stroke-width="3" opacity="0.6"/>
</svg>
