<svg width="256" height="256" viewBox="0 0 256 256" fill="none" xmlns="http://www.w3.org/2000/svg">
  <defs>
    <linearGradient id="armor" x1="40" y1="24" x2="204" y2="228" gradientUnits="userSpaceOnUse">
      <stop stop-color="#D6A55B"/>
      <stop offset="0.32" stop-color="#7E8794"/>
      <stop offset="0.68" stop-color="#222D3C"/>
      <stop offset="1" stop-color="#111923"/>
    </linearGradient>
    <linearGradient id="edge" x1="73" y1="58" x2="183" y2="200" gradientUnits="userSpaceOnUse">
      <stop stop-color="#6CF0FF"/>
      <stop offset="1" stop-color="#5D76FF"/>
    </linearGradient>
    <filter id="glow" x="53" y="45" width="150" height="166" filterUnits="userSpaceOnUse" color-interpolation-filters="sRGB">
      <feGaussianBlur stdDeviation="8" result="blur"/>
      <feMerge>
        <feMergeNode in="blur"/>
        <feMergeNode in="SourceGraphic"/>
      </feMerge>
    </filter>
  </defs>
  <path d="M128 18L197 48L214 123C217 147 202 176 175 198L128 236L81 198C54 176 39 147 42 123L59 48L128 18Z" fill="#0A1018" stroke="#C79A52" stroke-width="6"/>
  <path d="M128 34L183 58L197 123C199 141 188 164 166 183L128 214L90 183C68 164 57 141 59 123L73 58L128 34Z" fill="url(#armor)" stroke="#6E7784" stroke-width="4"/>
  <path d="M128 56L165 72L174 122C175 135 167 151 152 164L128 184L104 164C89 151 81 135 82 122L91 72L128 56Z" fill="#121A24" stroke="#8CE7FF" stroke-width="3" filter="url(#glow)"/>
  <path d="M128 72L147 80L153 121C153 129 149 138 141 145L128 156L115 145C107 138 103 129 103 121L109 80L128 72Z" fill="#0E1520"/>
  <path d="M127 84L138 88L142 119C142 124 139 129 135 132L127 139L119 132C115 129 112 124 112 119L116 88L127 84Z" fill="url(#edge)"/>
  <path d="M91 71L75 98" stroke="#2F3946" stroke-width="6" stroke-linecap="round"/>
  <path d="M170 94L183 117" stroke="#2C3642" stroke-width="6" stroke-linecap="round"/>
  <path d="M95 173L113 160" stroke="#A15A47" stroke-width="4" stroke-linecap="round" opacity="0.8"/>
  <path d="M153 147L168 136" stroke="#A15A47" stroke-width="4" stroke-linecap="round" opacity="0.8"/>
  <path d="M86 123H109" stroke="#6CF0FF" stroke-width="3" stroke-linecap="round" opacity="0.8"/>
  <path d="M147 123H170" stroke="#6CF0FF" stroke-width="3" stroke-linecap="round" opacity="0.8"/>
  <path d="M67 52L81 61" stroke="#F3D7AB" stroke-width="2" opacity="0.45"/>
  <path d="M174 61L190 52" stroke="#F3D7AB" stroke-width="2" opacity="0.45"/>
</svg>
